name C:/MyDriveSym/Projects/mobilecap/Data\Session20210825_0002\mocap\ForceDataProcessed\walking2_forces.mot
datacolumns 19
datarows 24
range 0.98200000 0.99350000
endheader 
time	R_ground_force_vx	R_ground_force_vy	R_ground_force_vz	R_ground_force_px	R_ground_force_py	R_ground_force_pz	R_ground_torque_x	R_ground_torque_y	R_ground_torque_z	L_ground_force_vx	L_ground_force_vy	L_ground_force_vz	L_ground_force_px	L_ground_force_py	L_ground_force_pz	L_ground_torque_x	L_ground_torque_y	L_ground_torque_z	
          0.98200000	          0.00000000	          0.00000000	          0.00000000	          1.26501600	          0.00000000	         -0.13970300	          0.00000000	          0.00000000	          0.00000000	         42.06118900	        597.08061000	         27.68374200	          0.94417100	          0.00600000	         -0.25921800	          0.00000000	          2.24577100	          0.00000000	
          0.98250000	          0.00000000	          0.00000000	          0.00000000	          1.26653300	          0.00000000	         -0.13968500	          0.00000000	          0.00000000	          0.00000000	         42.31629200	        597.90451900	         27.76979200	          0.94433000	          0.00600000	         -0.25923600	          0.00000000	          2.23851900	          0.00000000	
          0.98300000	          0.00000000	          0.00000000	          0.00000000	          1.26805000	          0.00000000	         -0.13966700	          0.00000000	          0.00000000	          0.00000000	         42.57193200	        598.72634800	         27.85548500	          0.94448800	          0.00600000	         -0.25925300	          0.00000000	          2.23118300	          0.00000000	
          0.98350000	          0.00000000	          0.00000000	          0.00000000	          1.26956600	          0.00000000	         -0.13964900	          0.00000000	          0.00000000	          0.00000000	         42.82810300	        599.54601900	         27.94080900	          0.94464700	          0.00600000	         -0.25927100	          0.00000000	          2.22376400	          0.00000000	
          0.98400000	          0.00000000	          0.00000000	          0.00000000	          1.27108300	          0.00000000	         -0.13963100	          0.00000000	          0.00000000	          0.00000000	         43.08479900	        600.36344800	         28.02575400	          0.94480500	          0.00600000	         -0.25928800	          0.00000000	          2.21626400	          0.00000000	
          0.98450000	          0.00000000	          0.00000000	          0.00000000	          1.27260000	          0.00000000	         -0.13961300	          0.00000000	          0.00000000	          0.00000000	         43.34201400	        601.17855600	         28.11030900	          0.94496300	          0.00600000	         -0.25930500	          0.00000000	          2.20868200	          0.00000000	
          0.98500000	          0.00000000	          0.00000000	          0.00000000	          1.27411700	          0.00000000	         -0.13959400	          0.00000000	          0.00000000	          0.00000000	         43.59974200	        601.99125900	         28.19446300	          0.94512200	          0.00600000	         -0.25932100	          0.00000000	          2.20101900	          0.00000000	
          0.98550000	          0.00000000	          0.00000000	          0.00000000	          1.27563400	          0.00000000	         -0.13957600	          0.00000000	          0.00000000	          0.00000000	         43.85797900	        602.80147400	         28.27820500	          0.94528000	          0.00600000	         -0.25933800	          0.00000000	          2.19327800	          0.00000000	
          0.98600000	          0.00000000	          0.00000000	          0.00000000	          1.27715000	          0.00000000	         -0.13955800	          0.00000000	          0.00000000	          0.00000000	         44.11671600	        603.60911900	         28.36152400	          0.94543800	          0.00600000	         -0.25935400	          0.00000000	          2.18545700	          0.00000000	
          0.98650000	          0.00000000	          0.00000000	          0.00000000	          1.27866700	          0.00000000	         -0.13954000	          0.00000000	          0.00000000	          0.00000000	         44.37594800	        604.41410900	         28.44441000	          0.94559600	          0.00600000	         -0.25937000	          0.00000000	          2.17755800	          0.00000000	
          0.98700000	          0.00000000	          0.00000000	          0.00000000	          1.28018400	          0.00000000	         -0.13952200	          0.00000000	          0.00000000	          0.00000000	         44.63566900	        605.21636000	         28.52685000	          0.94575300	          0.00600000	         -0.25938600	          0.00000000	          2.16958200	          0.00000000	
          0.98750000	          0.00000000	          0.00000000	          0.00000000	          1.28170100	          0.00000000	         -0.13950400	          0.00000000	          0.00000000	          0.00000000	         44.89587200	        606.01578800	         28.60883500	          0.94591100	          0.00600000	         -0.25940100	          0.00000000	          2.16153100	          0.00000000	
          0.98800000	          0.00000000	          0.00000000	          0.00000000	          1.28321800	          0.00000000	         -0.13948500	          0.00000000	          0.00000000	          0.00000000	         45.15655000	        606.81230700	         28.69035300	          0.94606900	          0.00600000	         -0.25941600	          0.00000000	          2.15340300	          0.00000000	
          0.98850000	          0.00000000	          0.00000000	          0.00000000	          1.28473500	          0.00000000	         -0.13946700	          0.00000000	          0.00000000	          0.00000000	         45.41769700	        607.60583100	         28.77139200	          0.94622600	          0.00600000	         -0.25943200	          0.00000000	          2.14520200	          0.00000000	
          0.98900000	          0.00000000	          0.00000000	          0.00000000	          1.28625100	          0.00000000	         -0.13944900	          0.00000000	          0.00000000	          0.00000000	         45.67930500	        608.39627400	         28.85194200	          0.94638400	          0.00600000	         -0.25944600	          0.00000000	          2.13692700	          0.00000000	
          0.98950000	          0.00000000	          0.00000000	          0.00000000	          1.28776800	          0.00000000	         -0.13943100	          0.00000000	          0.00000000	          0.00000000	         45.94136900	        609.18355000	         28.93199100	          0.94654100	          0.00600000	         -0.25946100	          0.00000000	          2.12857900	          0.00000000	
          0.99000000	          0.00000000	          0.00000000	          0.00000000	          1.28928500	          0.00000000	         -0.13941300	          0.00000000	          0.00000000	          0.00000000	         46.20388000	        609.96757100	         29.01152900	          0.94669800	          0.00600000	         -0.25947600	          0.00000000	          2.12015900	          0.00000000	
          0.99050000	          0.00000000	          0.00000000	          0.00000000	          1.29080200	          0.00000000	         -0.13939500	          0.00000000	          0.00000000	          0.00000000	         46.46683100	        610.74825100	         29.09054300	          0.94685600	          0.00600000	         -0.25949000	          0.00000000	          2.11166900	          0.00000000	
          0.99100000	          0.00000000	          0.00000000	          0.00000000	          1.29231900	          0.00000000	         -0.13937600	          0.00000000	          0.00000000	          0.00000000	         46.73021600	        611.52549900	         29.16902400	          0.94701300	          0.00600000	         -0.25950400	          0.00000000	          2.10311000	          0.00000000	
          0.99150000	          0.00000000	          0.00000000	          0.00000000	          1.29383500	          0.00000000	         -0.13935800	          0.00000000	          0.00000000	          0.00000000	         46.99402600	        612.29923000	         29.24695800	          0.94717000	          0.00600000	         -0.25951800	          0.00000000	          2.09448100	          0.00000000	
          0.99200000	          0.00000000	          0.00000000	          0.00000000	          1.29535200	          0.00000000	         -0.13934000	          0.00000000	          0.00000000	          0.00000000	         47.25825500	        613.06935300	         29.32433500	          0.94732700	          0.00600000	         -0.25953100	          0.00000000	          2.08578500	          0.00000000	
          0.99250000	          0.00000000	          0.00000000	          0.00000000	          1.29686900	          0.00000000	         -0.13932200	          0.00000000	          0.00000000	          0.00000000	         47.52289400	        613.83577900	         29.40114400	          0.94748400	          0.00600000	         -0.25954500	          0.00000000	          2.07702200	          0.00000000	
          0.99300000	          0.00000000	          0.00000000	          0.00000000	          1.29838600	          0.00000000	         -0.13930400	          0.00000000	          0.00000000	          0.00000000	         47.78793500	        614.59842000	         29.47737400	          0.94764100	          0.00600000	         -0.25955800	          0.00000000	          2.06819300	          0.00000000	
          0.99350000	          0.00000000	          0.00000000	          0.00000000	          1.29990300	          0.00000000	         -0.13928600	          0.00000000	          0.00000000	          0.00000000	         48.05337100	        615.35718400	         29.55301200	          0.94779700	          0.00600000	         -0.25957100	          0.00000000	          2.05930000	          0.00000000	
